{
  "extensionsUsed": [
    "KHR_materials_transmission",
    "KHR_materials_clearcoat",
    "KHR_materials_ior",
    "KHR_materials_specular"
  ],
  "accessors": [
    {
      "bufferView": 0,
      "componentType": 5126,
      "count": 2085,
      "type": "VEC3",
      "max": [
        25.10759,
        27.85739,
        7.314093E-15
      ],
      "min": [
        -7.10542736E-13,
        2.05719,
        -100.0
      ]
    },
    {
      "bufferView": 1,
      "componentType": 5125,
      "count": 11130,
      "type": "SCALAR",
      "max": [
        2084.0
      ],
      "min": [
        0.0
      ]
    },
    {
      "bufferView": 2,
      "componentType": 5126,
      "count": 2085,
      "type": "VEC3",
      "max": [
        1.0,
        1.0,
        1.0
      ],
      "min": [
        -1.0,
        -1.0,
        -1.0
      ]
    },
    {
      "bufferView": 3,
      "componentType": 5126,
      "count": 2085,
      "type": "VEC2",
      "max": [
        0.998535156,
        1.0
      ],
      "min": [
        0.0,
        0.06991929
      ]
    },
    {
      "bufferView": 4,
      "componentType": 5126,
      "count": 84,
      "type": "VEC3",
      "max": [
        110.855164,
        74.09213,
        0.0
      ],
      "min": [
        43.08113,
        2.05719,
        -100.0
      ]
    },
    {
      "bufferView": 5,
      "componentType": 5125,
      "count": 198,
      "type": "SCALAR",
      "max": [
        83.0
      ],
      "min": [
        0.0
      ]
    },
    {
      "bufferView": 6,
      "componentType": 5126,
      "count": 84,
      "type": "VEC3",
      "max": [
        0.9288412,
        1.0,
        1.0
      ],
      "min": [
        -0.9288412,
        -1.0,
        -1.0
      ]
    },
    {
      "bufferView": 7,
      "componentType": 5126,
      "count": 84,
      "type": "VEC2",
      "max": [
        0.998535156,
        1.0
      ],
      "min": [
        0.0,
        0.21225369
      ]
    },
    {
      "bufferView": 8,
      "componentType": 5126,
      "count": 56,
      "type": "VEC3",
      "max": [
        322.411835,
        74.09213,
        0.0
      ],
      "min": [
        313.218353,
        2.05719,
        -100.0
      ]
    },
    {
      "bufferView": 9,
      "componentType": 5125,
      "count": 132,
      "type": "SCALAR",
      "max": [
        55.0
      ],
      "min": [
        0.0
      ]
    },
    {
      "bufferView": 10,
      "componentType": 5126,
      "count": 56,
      "type": "VEC3",
      "max": [
        1.0,
        1.0,
        1.0
      ],
      "min": [
        -1.0,
        -1.0,
        -1.0
      ]
    },
    {
      "bufferView": 11,
      "componentType": 5126,
      "count": 56,
      "type": "VEC2",
      "max": [
        0.947894,
        1.0
      ],
      "min": [
        0.0,
        0.00146484375
      ]
    },
    {
      "bufferView": 12,
      "componentType": 5126,
      "count": 6158,
      "type": "VEC3",
      "max": [
        47.5417862,
        74.09181,
        0.0
      ],
      "min": [
        2.173091,
        27.85739,
        -100.0
      ]
    },
    {
      "bufferView": 13,
      "componentType": 5125,
      "count": 33444,
      "type": "SCALAR",
      "max": [
        6157.0
      ],
      "min": [
        0.0
      ]
    },
    {
      "bufferView": 14,
      "componentType": 5126,
      "count": 6158,
      "type": "VEC3",
      "max": [
        1.0,
        0.999989569,
        1.0
      ],
      "min": [
        -1.0,
        -1.0,
        -1.0
      ]
    },
    {
      "bufferView": 15,
      "componentType": 5126,
      "count": 6158,
      "type": "VEC2",
      "max": [
        0.998535156,
        1.0
      ],
      "min": [
        0.0,
        0.03509897
      ]
    },
    {
      "bufferView": 16,
      "componentType": 5126,
      "count": 8551,
      "type": "VEC3",
      "max": [
        428.173523,
        74.09181,
        2.12707066E-12
      ],
      "min": [
        382.80484,
        2.05719,
        -100.0
      ]
    },
    {
      "bufferView": 17,
      "componentType": 5125,
      "count": 46398,
      "type": "SCALAR",
      "max": [
        8550.0
      ],
      "min": [
        0.0
      ]
    },
    {
      "bufferView": 18,
      "componentType": 5126,
      "count": 8551,
      "type": "VEC3",
      "max": [
        1.0,
        1.0,
        1.0
      ],
      "min": [
        -1.0,
        -1.0,
        -1.0
      ]
    },
    {
      "bufferView": 19,
      "componentType": 5126,
      "count": 8551,
      "type": "VEC2",
      "max": [
        0.998535156,
        1.0
      ],
      "min": [
        0.0,
        0.133401692
      ]
    },
    {
      "bufferView": 20,
      "componentType": 5126,
      "count": 3674,
      "type": "VEC3",
      "max": [
        301.301758,
        74.09213,
        0.0
      ],
      "min": [
        257.54184,
        2.05719,
        -100.0
      ]
    },
    {
      "bufferView": 21,
      "componentType": 5125,
      "count": 19674,
      "type": "SCALAR",
      "max": [
        3673.0
      ],
      "min": [
        0.0
      ]
    },
    {
      "bufferView": 22,
      "componentType": 5126,
      "count": 3674,
      "type": "VEC3",
      "max": [
        0.999923944,
        1.0,
        1.0
      ],
      "min": [
        -1.0,
        -1.0,
        -1.0
      ]
    },
    {
      "bufferView": 23,
      "componentType": 5126,
      "count": 3674,
      "type": "VEC2",
      "max": [
        0.998535156,
        1.0
      ],
      "min": [
        0.0,
        0.07769686
      ]
    },
    {
      "bufferView": 24,
      "componentType": 5126,
      "count": 3697,
      "type": "VEC3",
      "max": [
        144.287613,
        74.09213,
        0.0
      ],
      "min": [
        100.527718,
        2.05719,
        -100.0
      ]
    },
    {
      "bufferView": 25,
      "componentType": 5125,
      "count": 19770,
      "type": "SCALAR",
      "max": [
        3696.0
      ],
      "min": [
        0.0
      ]
    },
    {
      "bufferView": 26,
      "componentType": 5126,
      "count": 3697,
      "type": "VEC3",
      "max": [
        0.999923944,
        1.0,
        1.0
      ],
      "min": [
        -1.0,
        -1.0,
        -1.0
      ]
    },
    {
      "bufferView": 27,
      "componentType": 5126,
      "count": 3697,
      "type": "VEC2",
      "max": [
        0.998535156,
        1.0
      ],
      "min": [
        0.0,
        0.07769686
      ]
    },
    {
      "bufferView": 28,
      "componentType": 5126,
      "count": 3250,
      "type": "VEC3",
      "max": [
        391.603729,
        74.09213,
        6.502368E-16
      ],
      "min": [
        338.4254,
        2.058589,
        -100.0
      ]
    },
    {
      "bufferView": 29,
      "componentType": 5125,
      "count": 17460,
      "type": "SCALAR",
      "max": [
        3249.0
      ],
      "min": [
        0.0
      ]
    },
    {
      "bufferView": 30,
      "componentType": 5126,
      "count": 3250,
      "type": "VEC3",
      "max": [
        1.0,
        1.0,
        1.0
      ],
      "min": [
        -1.0,
        -0.999947369,
        -1.0
      ]
    },
    {
      "bufferView": 31,
      "componentType": 5126,
      "count": 3250,
      "type": "VEC2",
      "max": [
        0.998535156,
        1.0
      ],
      "min": [
        0.0,
        0.06298298
      ]
    },
    {
      "bufferView": 32,
      "componentType": 5126,
      "count": 6528,
      "type": "VEC3",
      "max": [
        254.376923,
        74.09213,
        7.577005E-16
      ],
      "min": [
        182.3426,
        2.05754614,
        -100.0
      ]
    },
    {
      "bufferView": 33,
      "componentType": 5125,
      "count": 35676,
      "type": "SCALAR",
      "max": [
        6527.0
      ],
      "min": [
        0.0
      ]
    },
    {
      "bufferView": 34,
      "componentType": 5126,
      "count": 6528,
      "type": "VEC3",
      "max": [
        1.0,
        1.0,
        1.0
      ],
      "min": [
        -1.0,
        -1.0,
        -1.0
      ]
    },
    {
      "bufferView": 35,
      "componentType": 5126,
      "count": 6528,
      "type": "VEC2",
      "max": [
        0.998535156,
        1.0
      ],
      "min": [
        0.0,
        0.09815693
      ]
    },
    {
      "bufferView": 36,
      "componentType": 5126,
      "count": 86,
      "type": "VEC3",
      "max": [
        201.694885,
        74.09213,
        0.0
      ],
      "min": [
        149.617584,
        2.05719,
        -100.0
      ]
    },
    {
      "bufferView": 37,
      "componentType": 5125,
      "count": 198,
      "type": "SCALAR",
      "max": [
        85.0
      ],
      "min": [
        0.0
      ]
    },
    {
      "bufferView": 38,
      "componentType": 5126,
      "count": 86,
      "type": "VEC3",
      "max": [
        1.0,
        1.0,
        1.0
      ],
      "min": [
        -1.0,
        -1.0,
        -1.0
      ]
    },
    {
      "bufferView": 39,
      "componentType": 5126,
      "count": 86,
      "type": "VEC2",
      "max": [
        0.9159124,
        1.0
      ],
      "min": [
        0.0,
        0.00146484375
      ]
    }
  ],
  "asset": {
    "version": "2.0"
  },
  "buffers": [
    {
      "uri": "data:application/octet-stream;base64,",
      "byteLength": 25020
    },
    {
      "uri": "data:application/octet-stream;base64,",
      "byteLength": 44520
    },
    {
      "uri": "data:application/octet-stream;base64,",
      "byteLength": 25020
    },
    {
      "uri": "data:application/octet-stream;base64,",
      "byteLength": 16680
    },
    {
      "uri": "data:application/octet-stream;base64,",
      "byteLength": 1008
    },
    {
      "uri": "data:application/octet-stream;base64,",
      "byteLength": 792
    },
    {
      "uri": "data:application/octet-stream;base64,",
      "byteLength": 1008
    },
    {
      "uri": "data:application/octet-stream;base64,",
      "byteLength": 672
    },
    {
      "uri": "data:application/octet-stream;base64,",
      "byteLength": 672
    },
    {
      "uri": "data:application/octet-stream;base64,",
      "byteLength": 528
    },
    {
      "uri": "data:application/octet-stream;base64,",
      "byteLength": 672
    },
    {
      "uri": "data:application/octet-stream;base64,",
      "byteLength": 448
    },
    {
      "uri": "data:application/octet-stream;base64,",
      "byteLength": 73896
    },
    {
      "uri": "data:application/octet-stream;base64,",
      "byteLength": 133776
    },
    {
      "uri": "data:application/octet-stream;base64,",
      "byteLength": 73896
    },
    {
      "uri": "data:application/octet-stream;base64,",
      "byteLength": 49264
    },
    {
      "uri": "data:application/octet-stream;base64,",
      "byteLength": 102612
    },
    {
      "uri": "data:application/octet-stream;base64,",
      "byteLength": 185592
    },
    {
      "uri": "data:application/octet-stream;base64,",
      "byteLength": 102612
    },
    {
      "uri": "data:application/octet-stream;base64,",
      "byteLength": 68408
    },
    {
      "uri": "data:application/octet-stream;base64,",
      "byteLength": 44088
    },
    {
      "uri": "data:application/octet-stream;base64,",
      "byteLength": 78696
    },
    {
      "uri": "data:application/octet-stream;base64,",
      "byteLength": 44088
    },
    {
      "uri": "data:application/octet-stream;base64,",
      "byteLength": 29392
    },
    {
      "uri": "data:application/octet-stream;base64,",
      "byteLength": 44364
    },
    {
      "uri": "data:application/octet-stream;base64,",
      "byteLength": 79080
    },
    {
      "uri": "data:application/octet-stream;base64,",
      "byteLength": 44364
    },
    {
      "uri": "data:application/octet-stream;base64,",
      "byteLength": 29576
    },
    {
      "uri": "data:application/octet-stream;base64,",
      "byteLength": 39000
    },
    {
      "uri": "data:application/octet-stream;base64,",
      "byteLength": 69840
    },
    {
      "uri": "data:application/octet-stream;base64,",
      "byteLength": 39000
    },
    {
      "uri": "data:application/octet-stream;base64,",
      "byteLength": 26000
    },
    {
      "uri": "data:application/octet-stream;base64,",
      "byteLength": 78336
    },
    {
      "uri": "data:application/octet-stream;base64,",
      "byteLength": 142704
    },
    {
      "uri": "data:application/octet-stream;base64,",
      "byteLength": 78336
    },
    {
      "uri": "data:application/octet-stream;base64,",
      "byteLength": 52224
    },
    {
      "uri": "data:application/octet-stream;base64,",
      "byteLength": 1032
    },
    {
      "uri": "data:application/octet-stream;base64,",
      "byteLength": 792
    },
    {
      "uri": "data:application/octet-stream;base64,",
      "byteLength": 1032
    },
    {
      "uri": "data:application/octet-stream;base64,",
      "byteLength": 688
    }
  ],
  "bufferViews": [
    {
      "buffer": 0,
      "byteLength": 25020,
      "target": 34962
    },
    {
      "buffer": 1,
      "byteLength": 44520,
      "target": 34963
    },
    {
      "buffer": 2,
      "byteLength": 25020,
      "target": 34962
    },
    {
      "buffer": 3,
      "byteLength": 16680,
      "target": 34962
    },
    {
      "buffer": 4,
      "byteLength": 1008,
      "target": 34962
    },
    {
      "buffer": 5,
      "byteLength": 792,
      "target": 34963
    },
    {
      "buffer": 6,
      "byteLength": 1008,
      "target": 34962
    },
    {
      "buffer": 7,
      "byteLength": 672,
      "target": 34962
    },
    {
      "buffer": 8,
      "byteLength": 672,
      "target": 34962
    },
    {
      "buffer": 9,
      "byteLength": 528,
      "target": 34963
    },
    {
      "buffer": 10,
      "byteLength": 672,
      "target": 34962
    },
    {
      "buffer": 11,
      "byteLength": 448,
      "target": 34962
    },
    {
      "buffer": 12,
      "byteLength": 73896,
      "target": 34962
    },
    {
      "buffer": 13,
      "byteLength": 133776,
      "target": 34963
    },
    {
      "buffer": 14,
      "byteLength": 73896,
      "target": 34962
    },
    {
      "buffer": 15,
      "byteLength": 49264,
      "target": 34962
    },
    {
      "buffer": 16,
      "byteLength": 102612,
      "target": 34962
    },
    {
      "buffer": 17,
      "byteLength": 185592,
      "target": 34963
    },
    {
      "buffer": 18,
      "byteLength": 102612,
      "target": 34962
    },
    {
      "buffer": 19,
      "byteLength": 68408,
      "target": 34962
    },
    {
      "buffer": 20,
      "byteLength": 44088,
      "target": 34962
    },
    {
      "buffer": 21,
      "byteLength": 78696,
      "target": 34963
    },
    {
      "buffer": 22,
      "byteLength": 44088,
      "target": 34962
    },
    {
      "buffer": 23,
      "byteLength": 29392,
      "target": 34962
    },
    {
      "buffer": 24,
      "byteLength": 44364,
      "target": 34962
    },
    {
      "buffer": 25,
      "byteLength": 79080,
      "target": 34963
    },
    {
      "buffer": 26,
      "byteLength": 44364,
      "target": 34962
    },
    {
      "buffer": 27,
      "byteLength": 29576,
      "target": 34962
    },
    {
      "buffer": 28,
      "byteLength": 39000,
      "target": 34962
    },
    {
      "buffer": 29,
      "byteLength": 69840,
      "target": 34963
    },
    {
      "buffer": 30,
      "byteLength": 39000,
      "target": 34962
    },
    {
      "buffer": 31,
      "byteLength": 26000,
      "target": 34962
    },
    {
      "buffer": 32,
      "byteLength": 78336,
      "target": 34962
    },
    {
      "buffer": 33,
      "byteLength": 142704,
      "target": 34963
    },
    {
      "buffer": 34,
      "byteLength": 78336,
      "target": 34962
    },
    {
      "buffer": 35,
      "byteLength": 52224,
      "target": 34962
    },
    {
      "buffer": 36,
      "byteLength": 1032,
      "target": 34962
    },
    {
      "buffer": 37,
      "byteLength": 792,
      "target": 34963
    },
    {
      "buffer": 38,
      "byteLength": 1032,
      "target": 34962
    },
    {
      "buffer": 39,
      "byteLength": 688,
      "target": 34962
    }
  ],
  "materials": [
    {
      "name": "Sartorius-Font",
      "extensions": {
        "KHR_materials_transmission": {},
        "KHR_materials_clearcoat": {},
        "KHR_materials_ior": {
          "ior": 1.0
        },
        "KHR_materials_specular": {
          "specularFactor": 0.5,
          "specularColorFactor": [
            1.0,
            1.0,
            1.0
          ]
        }
      },
      "pbrMetallicRoughness": {
        "baseColorFactor": [
          0.0,
          0.0,
          0.0,
          1.0
        ],
        "metallicFactor": 0.0,
        "roughnessFactor": 0.399999976
      }
    }
  ],
  "meshes": [
    {
      "primitives": [
        {
          "attributes": {
            "POSITION": 0,
            "NORMAL": 2,
            "TEXCOORD_0": 3
          },
          "indices": 1,
          "material": 0
        }
      ]
    },
    {
      "primitives": [
        {
          "attributes": {
            "POSITION": 4,
            "NORMAL": 6,
            "TEXCOORD_0": 7
          },
          "indices": 5,
          "material": 0
        }
      ]
    },
    {
      "primitives": [
        {
          "attributes": {
            "POSITION": 8,
            "NORMAL": 10,
            "TEXCOORD_0": 11
          },
          "indices": 9,
          "material": 0
        }
      ]
    },
    {
      "primitives": [
        {
          "attributes": {
            "POSITION": 12,
            "NORMAL": 14,
            "TEXCOORD_0": 15
          },
          "indices": 13,
          "material": 0
        }
      ]
    },
    {
      "primitives": [
        {
          "attributes": {
            "POSITION": 16,
            "NORMAL": 18,
            "TEXCOORD_0": 19
          },
          "indices": 17,
          "material": 0
        }
      ]
    },
    {
      "primitives": [
        {
          "attributes": {
            "POSITION": 20,
            "NORMAL": 22,
            "TEXCOORD_0": 23
          },
          "indices": 21,
          "material": 0
        }
      ]
    },
    {
      "primitives": [
        {
          "attributes": {
            "POSITION": 24,
            "NORMAL": 26,
            "TEXCOORD_0": 27
          },
          "indices": 25,
          "material": 0
        }
      ]
    },
    {
      "primitives": [
        {
          "attributes": {
            "POSITION": 28,
            "NORMAL": 30,
            "TEXCOORD_0": 31
          },
          "indices": 29,
          "material": 0
        }
      ]
    },
    {
      "primitives": [
        {
          "attributes": {
            "POSITION": 32,
            "NORMAL": 34,
            "TEXCOORD_0": 35
          },
          "indices": 33,
          "material": 0
        }
      ]
    },
    {
      "primitives": [
        {
          "attributes": {
            "POSITION": 36,
            "NORMAL": 38,
            "TEXCOORD_0": 39
          },
          "indices": 37,
          "material": 0
        }
      ]
    }
  ],
  "nodes": [
    {
      "mesh": 0,
      "name": "_10"
    },
    {
      "mesh": 1,
      "name": "_9"
    },
    {
      "mesh": 2,
      "name": "_8"
    },
    {
      "mesh": 3,
      "name": "_7"
    },
    {
      "mesh": 4,
      "name": "_6"
    },
    {
      "mesh": 5,
      "name": "_5"
    },
    {
      "mesh": 6,
      "name": "_4"
    },
    {
      "mesh": 7,
      "name": "_3"
    },
    {
      "mesh": 8,
      "name": "_2"
    },
    {
      "mesh": 9,
      "name": "_1"
    }
  ],
  "samplers": [
    {
      "magFilter": 9729,
      "minFilter": 9729
    }
  ],
  "scene": 0,
  "scenes": [
    {
      "nodes": [
        0,
        1,
        2,
        3,
        4,
        5,
        6,
        7,
        8,
        9
      ],
      "extensions": {}
    }
  ],
  "extensions": {}
}